<svg width="1280" height="947" viewBox="0 0 1280 947" fill="none" xmlns="http://www.w3.org/2000/svg">
<path d="M179.504 91.1649C182.025 87.9386 185.724 85.8457 189.788 85.3468C193.852 84.8478 197.947 85.9836 201.173 88.5043C204.4 91.025 206.493 94.7241 206.992 98.7879C207.491 102.852 206.355 106.947 203.834 110.173C201.313 113.4 197.614 115.493 193.551 115.992C189.487 116.491 185.391 115.355 182.165 112.834C178.939 110.313 176.846 106.614 176.347 102.551C175.848 98.4868 176.984 94.3913 179.504 91.1649ZM184.37 94.9666C182.858 96.9024 182.176 99.3598 182.476 101.798C182.775 104.236 184.031 106.456 185.967 107.968C187.902 109.481 190.36 110.162 192.798 109.863C195.236 109.563 197.456 108.308 198.968 106.372C200.481 104.436 201.162 101.979 200.863 99.5404C200.563 97.1021 199.308 94.8827 197.372 93.3703C195.436 91.8578 192.979 91.1764 190.54 91.4757C188.102 91.7751 185.883 93.0308 184.37 94.9666ZM211.665 120.21L206.799 116.408L210.601 111.542L215.467 115.344L211.665 120.21Z" fill="#03D2FF" fill-opacity="0.15"/>
<path d="M1142.83 213C1139.44 213 1136.08 213.668 1132.95 214.966C1129.81 216.265 1126.97 218.168 1124.57 220.566C1119.72 225.411 1117 231.982 1117 238.833C1117 245.685 1119.72 252.256 1124.57 257.1C1126.97 259.499 1129.81 261.402 1132.95 262.7C1136.08 263.998 1139.44 264.667 1142.83 264.667C1149.68 264.667 1156.26 261.945 1161.1 257.1C1165.94 252.256 1168.67 245.685 1168.67 238.833C1168.67 235.441 1168 232.082 1166.7 228.947C1165.4 225.813 1163.5 222.965 1161.1 220.566C1158.7 218.168 1155.85 216.265 1152.72 214.966C1149.59 213.668 1146.23 213 1142.83 213Z" fill="#FF1A1A" fill-opacity="0.15"/>
<path d="M1208.83 810.667C1208.83 805.12 1212.88 794.243 1219.36 783.042C1220.29 781.417 1222.01 780.333 1224 780.333C1226.43 780.333 1228.33 782.24 1228.33 784.667V810.667H1232.67V784.667C1232.67 779.9 1228.77 776 1224 776C1220.4 776 1217.28 777.993 1215.61 780.875C1212.21 786.747 1210.15 791.492 1208.83 795.565V781.417C1208.83 778.448 1206.38 776 1203.42 776C1200.45 776 1198 778.448 1198 781.417C1198 784.385 1200.45 786.833 1203.42 786.833C1203.78 786.833 1204.15 786.833 1204.5 786.725V810.667H1208.83ZM1203.42 780.333C1204.04 780.333 1204.5 780.788 1204.5 781.417C1204.5 782.045 1204.04 782.5 1203.42 782.5C1202.79 782.5 1202.33 782.045 1202.33 781.417C1202.33 780.788 1202.79 780.333 1203.42 780.333Z" fill="#FF03E6" fill-opacity="0.15"/>
<path d="M178.519 779.294L183.255 789.223C183.883 790.539 183.962 792.051 183.475 793.426C182.988 794.801 181.975 795.927 180.658 796.555L175.694 798.923C174.377 799.551 172.865 799.63 171.49 799.143C170.115 798.656 168.99 797.643 168.362 796.326L165.994 791.362L161.03 793.73L165.766 803.658L160.801 806.026L156.066 796.098L153.698 791.133L163.626 786.398C164.943 785.77 166.455 785.69 167.83 786.177C169.205 786.664 170.33 787.678 170.958 788.994L173.326 793.958L178.29 791.591L173.555 781.662L178.519 779.294ZM194.481 780.821C196.036 784.081 196.933 787.614 197.122 791.221C197.311 794.827 196.788 798.436 195.583 801.84C194.377 805.244 192.513 808.377 190.097 811.061C187.68 813.745 184.759 815.926 181.499 817.481C174.916 820.621 167.356 821.017 160.48 818.583C153.605 816.148 147.979 811.082 144.839 804.499C143.284 801.24 142.387 797.706 142.198 794.099C142.009 790.493 142.532 786.885 143.738 783.48C146.172 776.605 151.238 770.979 157.821 767.839C164.404 764.699 171.965 764.303 178.84 766.737C185.715 769.172 191.341 774.238 194.481 780.821ZM189.517 783.189C187.005 777.923 182.504 773.87 177.004 771.922C171.504 769.974 165.455 770.291 160.189 772.803C154.923 775.315 150.87 779.816 148.922 785.316C146.974 790.816 147.291 796.865 149.803 802.131C152.315 807.398 156.816 811.451 162.316 813.398C167.817 815.346 173.865 815.029 179.131 812.517C184.398 810.005 188.451 805.504 190.398 800.004C192.346 794.504 192.029 788.455 189.517 783.189Z" fill="#02FF86" fill-opacity="0.15"/>
<path d="M905.2 114.901C901.585 112.322 897.169 111.293 892.997 111.991L864.178 115.068C861.425 115.528 858.665 114.885 856.381 113.255C851.687 109.907 850.55 103.377 853.898 98.6833C857.246 93.9892 863.791 92.9383 868.485 96.2865C870.769 97.9159 872.276 100.316 872.765 103.241L873.811 107.774L880.051 107.15L878.826 102.072C878.091 97.6853 875.68 93.8445 872.066 91.2661C864.585 85.9305 854.178 87.6721 848.878 95.1023C843.578 102.532 845.319 112.94 852.8 118.276C856.415 120.854 860.831 121.883 865.003 121.185L893.822 118.109C896.575 117.648 899.335 118.292 901.619 119.921C906.313 123.269 907.45 129.799 904.102 134.493C900.754 139.187 894.209 140.238 889.515 136.89C887.256 135.279 885.724 132.86 885.235 129.936L884.131 125.323L877.967 126.001L879.174 131.105C879.926 135.466 882.312 139.289 885.952 141.885C893.433 147.221 903.822 145.504 909.122 138.074C914.494 130.544 912.681 120.236 905.2 114.901Z" fill="#FAFF05" fill-opacity="0.15"/>
<path d="M662.1 592L684.2 599.875L680.85 629.125L662.1 639.5L643.35 629.125L640 599.875L662.1 592ZM662.1 597L644.6 603.25L647.3 626.3L662.1 634.5L676.9 626.3L679.6 603.25L662.1 597ZM662.1 600.05L673.55 625.75H669.275L666.95 620.05H657.2L654.9 625.75H650.625L662.1 600.05ZM665.45 616.5L662.1 608.425L658.75 616.5H665.45Z" fill="#FF0404" fill-opacity="0.15"/>
<path d="M926.074 855.916C926.47 856.502 926.616 857.222 926.481 857.916C926.346 858.61 925.941 859.222 925.355 859.618C924.768 860.013 924.049 860.16 923.355 860.025C922.66 859.89 922.048 859.485 921.653 858.898C921.257 858.312 921.111 857.593 921.246 856.898C921.381 856.204 921.786 855.592 922.372 855.196C922.959 854.801 923.678 854.655 924.372 854.79C925.067 854.924 925.679 855.33 926.074 855.916ZM935.021 869.181C935.417 869.767 935.563 870.486 935.428 871.181C935.293 871.875 934.888 872.487 934.302 872.883C933.715 873.278 932.996 873.424 932.302 873.289C931.607 873.155 930.995 872.749 930.6 872.163C930.204 871.577 930.058 870.857 930.193 870.163C930.328 869.469 930.733 868.857 931.319 868.461C931.906 868.066 932.625 867.919 933.319 868.054C934.014 868.189 934.626 868.594 935.021 869.181ZM914.168 860.344L906.394 858.833L905.782 861.884L914.333 863.546C914.681 866.303 915.628 869.041 917.283 871.495C918.953 873.971 921.123 875.853 923.549 877.208L921.887 885.76L924.944 886.335L926.456 878.561C931.858 880.514 938.068 879.992 943.197 876.533L945.408 875.041L924.531 844.091L922.32 845.582C917.191 849.041 914.381 854.604 914.168 860.344ZM956.461 867.585C964.995 861.829 967.269 850.227 961.499 841.672C958.73 837.567 954.445 834.731 949.585 833.786C944.725 832.842 939.689 833.866 935.585 836.635L926.742 842.599L947.618 873.55L956.461 867.585Z" fill="#01FF1A" fill-opacity="0.15"/>
<path d="M427.644 283.189C429.686 284.035 431.308 285.657 432.154 287.699C433 289.741 433 292.035 432.154 294.077L430.56 297.927L438.259 301.116L439.853 297.266C440.699 295.224 442.321 293.602 444.363 292.756C446.405 291.91 448.699 291.91 450.741 292.756C452.783 293.602 454.405 295.224 455.251 297.266C456.097 299.308 456.097 301.602 455.251 303.644C454.405 305.686 452.783 307.308 450.741 308.154C448.699 309 446.405 309 444.363 308.154L440.514 306.56L437.325 314.259L441.174 315.853C443.216 316.699 444.838 318.321 445.684 320.363C446.53 322.405 446.53 324.699 445.684 326.741C444.838 328.783 443.216 330.405 441.174 331.251C439.132 332.097 436.838 332.097 434.796 331.251C432.754 330.405 431.132 328.783 430.286 326.741C429.44 324.699 429.44 322.405 430.286 320.363L431.881 316.514L424.182 313.325L422.587 317.174C421.741 319.216 420.119 320.838 418.077 321.684C416.035 322.53 413.741 322.53 411.699 321.684C409.657 320.838 408.035 319.216 407.189 317.174C406.343 315.132 406.343 312.838 407.189 310.796C408.035 308.754 409.657 307.132 411.699 306.286C413.741 305.44 416.035 305.44 418.077 306.286L421.927 307.881L425.116 300.182L421.266 298.587C419.224 297.741 417.602 296.119 416.756 294.077C415.91 292.035 415.91 289.741 416.756 287.699C417.602 285.657 419.224 284.035 421.266 283.189C423.308 282.343 425.602 282.343 427.644 283.189ZM434.136 321.958C433.713 322.979 433.713 324.126 434.136 325.147C434.558 326.168 435.37 326.979 436.391 327.402C437.411 327.824 438.559 327.824 439.58 327.402C440.6 326.979 441.412 326.168 441.835 325.147C442.257 324.126 442.257 322.979 441.835 321.958C441.412 320.937 440.6 320.125 439.58 319.703L435.73 318.108L434.136 321.958ZM436.664 304.965L428.965 301.776L425.776 309.475L433.475 312.664L436.664 304.965ZM416.483 310.136C415.462 309.713 414.314 309.713 413.294 310.136C412.273 310.558 411.461 311.37 411.039 312.391C410.616 313.411 410.616 314.559 411.039 315.58C411.461 316.6 412.273 317.412 413.294 317.835C414.314 318.257 415.462 318.257 416.483 317.835C417.504 317.412 418.315 316.6 418.738 315.58L420.332 311.73L416.483 310.136ZM428.305 292.483C428.728 291.462 428.728 290.314 428.305 289.294C427.882 288.273 427.071 287.461 426.05 287.039C425.029 286.616 423.882 286.616 422.861 287.039C421.84 287.461 421.029 288.273 420.606 289.294C420.183 290.314 420.183 291.462 420.606 292.483C421.029 293.503 421.84 294.315 422.861 294.738L426.71 296.332L428.305 292.483ZM445.958 304.305C446.979 304.728 448.126 304.728 449.147 304.305C450.168 303.882 450.979 303.071 451.402 302.05C451.825 301.029 451.825 299.882 451.402 298.861C450.979 297.84 450.168 297.029 449.147 296.606C448.126 296.183 446.979 296.183 445.958 296.606C444.937 297.029 444.126 297.84 443.703 298.861L442.108 302.71L445.958 304.305Z" fill="black" fill-opacity="0.15"/>
<path d="M594.75 58C597.869 58 600.957 58.6143 603.839 59.8079C606.72 61.0014 609.338 62.7508 611.544 64.9562C613.749 67.1616 615.499 69.7798 616.692 72.6613C617.886 75.5428 618.5 78.6311 618.5 81.75C618.5 88.0489 615.998 94.0898 611.544 98.5438C607.09 102.998 601.049 105.5 594.75 105.5C591.631 105.5 588.543 104.886 585.661 103.692C582.78 102.499 580.162 100.749 577.956 98.5438C573.502 94.0898 571 88.0489 571 81.75C571 75.4511 573.502 69.4102 577.956 64.9562C582.41 60.5022 588.451 58 594.75 58ZM594.75 62.75C589.711 62.75 584.878 64.7518 581.315 68.315C577.752 71.8782 575.75 76.7109 575.75 81.75C575.75 86.7137 577.65 91.25 580.761 94.5988L589.715 76.715L607.599 67.7613C604.25 64.65 599.714 62.75 594.75 62.75ZM594.75 100.75C599.789 100.75 604.622 98.7482 608.185 95.185C611.748 91.6218 613.75 86.7891 613.75 81.75C613.75 76.7863 611.85 72.25 608.739 68.9013L599.785 86.785L581.901 95.7387C585.25 98.85 589.786 100.75 594.75 100.75ZM594.75 81.75L592.921 79.9212L589.288 87.2125L596.579 83.5788L594.75 81.75ZM594.75 94.8125H597.125V98.375H594.75V94.8125ZM603.965 90.9888L605.651 89.3025L608.169 91.82L606.483 93.5063L603.965 90.9888ZM607.813 81.75V79.375H611.375V81.75H607.813ZM594.75 68.6875H592.375V65.125H594.75V68.6875ZM585.535 72.5112L583.849 74.1975L581.331 71.68L583.018 69.9938L585.535 72.5112ZM581.688 81.75V84.125H578.125V81.75H581.688Z" fill="#041DFF" fill-opacity="0.15"/>
<path d="M114.504 455.839C115.298 454.346 115.466 452.599 114.972 450.982C114.477 449.365 113.361 448.011 111.868 447.217C110.704 446.597 109.376 446.354 108.068 446.52C106.759 446.687 105.535 447.255 104.563 448.146L102.368 446.979L105.361 441.35L101.608 439.355L98.6152 444.984L81.8789 436.085C82.861 434.826 84.0133 433.61 85.3032 432.587C86.6419 431.518 88.0221 430.687 89.4825 430.068C90.943 429.449 92.3588 429.094 93.7487 429.015L95.1006 433.488L104.72 428.976L99.0911 425.983C97.2711 425.016 95.2944 424.614 93.1696 424.808C91.0449 425.002 88.9194 425.605 86.8107 426.674C84.742 427.668 82.8362 428.989 81.1232 430.581C79.4002 432.192 78.0062 433.954 76.9786 435.886C75.9511 437.819 75.2888 439.97 74.9167 442.299C74.5547 444.609 74.5251 446.928 74.8392 449.189C75.1222 451.554 75.8023 453.624 76.8484 455.504C77.8758 457.374 79.3139 458.788 81.1338 459.756L86.7626 462.749L85.1243 452.251L80.6598 453.632C79.9483 452.435 79.4503 451.063 79.1471 449.506C78.8439 447.949 78.7606 446.34 78.8984 444.633C79.0251 442.991 79.3893 441.356 79.8836 439.838L96.6199 448.737L93.627 454.365L97.3795 456.361L100.372 450.732L102.586 451.909C102.391 453.21 102.603 454.539 103.193 455.714C103.783 456.89 104.723 457.854 105.882 458.475C107.375 459.269 109.122 459.437 110.739 458.942C112.356 458.448 113.71 457.332 114.504 455.839ZM110.751 453.844C110.487 454.341 110.035 454.713 109.496 454.878C108.957 455.043 108.375 454.987 107.877 454.722C107.38 454.458 107.008 454.006 106.843 453.467C106.678 452.928 106.734 452.346 106.999 451.848C107.263 451.351 107.715 450.979 108.254 450.814C108.793 450.649 109.375 450.705 109.873 450.97C110.37 451.234 110.742 451.686 110.907 452.225C111.072 452.764 111.016 453.346 110.751 453.844Z" fill="#07FFA6" fill-opacity="0.15"/>
<path d="M470.833 863.5C466.413 863.5 462.174 861.744 459.048 858.618C455.923 855.493 454.167 851.254 454.167 846.833C454.167 842.413 455.923 838.174 459.048 835.048C462.174 831.923 466.413 830.167 470.833 830.167C475.254 830.167 479.493 831.923 482.618 835.048C485.744 838.174 487.5 842.413 487.5 846.833C487.5 851.254 485.744 855.493 482.618 858.618C479.493 861.744 475.254 863.5 470.833 863.5ZM470.833 826C468.097 826 465.388 826.539 462.861 827.586C460.333 828.633 458.036 830.167 456.102 832.102C452.195 836.009 450 841.308 450 846.833C450 852.359 452.195 857.658 456.102 861.565C458.036 863.499 460.333 865.034 462.861 866.081C465.388 867.128 468.097 867.667 470.833 867.667C476.359 867.667 481.658 865.472 485.565 861.565C489.472 857.658 491.667 852.359 491.667 846.833C491.667 844.097 491.128 841.388 490.081 838.861C489.034 836.333 487.499 834.036 485.565 832.102C483.63 830.167 481.334 828.633 478.806 827.586C476.278 826.539 473.569 826 470.833 826Z" fill="black" fill-opacity="0.15"/>
<path d="M990.148 433.292C987.735 431.784 985.049 430.767 982.243 430.297C979.436 429.827 976.565 429.915 973.793 430.555C968.193 431.848 963.337 435.312 960.292 440.185C957.247 445.058 956.262 450.942 957.555 456.541C958.195 459.313 959.375 461.932 961.027 464.249C962.68 466.565 964.772 468.533 967.185 470.041C972.058 473.086 977.941 474.071 983.54 472.778C989.139 471.485 993.996 468.021 997.041 463.148C998.549 460.735 999.566 458.049 1000.04 455.243C1000.51 452.436 1000.42 449.565 999.778 446.793C999.138 444.02 997.958 441.401 996.306 439.085C994.653 436.768 992.561 434.8 990.148 433.292ZM969.481 466.366C965.583 463.93 962.812 460.045 961.777 455.566C960.743 451.087 961.531 446.38 963.967 442.481C966.403 438.583 970.288 435.812 974.767 434.778C979.247 433.743 983.953 434.531 987.852 436.967C991.75 439.403 994.521 443.288 995.556 447.767C996.59 452.247 995.802 456.953 993.366 460.852C990.93 464.75 987.045 467.522 982.566 468.556C978.086 469.59 973.38 468.802 969.481 466.366ZM975.45 444.547C974.091 443.698 972.437 443.686 971.124 444.398C971.144 443.67 971.362 442.912 971.776 442.251C972.385 441.276 973.356 440.584 974.476 440.325C975.596 440.066 976.772 440.263 977.747 440.872C979.786 442.147 980.388 444.822 979.125 446.844C978.712 447.505 978.126 448.033 977.481 448.371C977.545 446.878 976.81 445.397 975.45 444.547ZM990.15 453.733C989.737 454.394 989.151 454.922 988.506 455.26C988.57 453.767 987.835 452.286 986.475 451.436C985.115 450.587 983.462 450.575 982.148 451.287C982.169 450.559 982.387 449.801 982.8 449.14C983.409 448.165 984.38 447.472 985.5 447.214C986.62 446.955 987.797 447.152 988.771 447.761C990.811 449.036 991.413 451.711 990.15 453.733ZM984.868 458.097L982.572 461.772L980.734 460.623C978.438 464.298 975.636 465.102 973.615 463.839C971.594 462.576 971.088 459.706 973.385 456.031L967.872 452.586L970.169 448.911L984.868 458.097Z" fill="#FFC805" fill-opacity="0.15"/>
<path d="M389 571.833L381.883 569.197C381.277 566.513 379.76 564.973 379.76 564.973C375.933 561.147 369.75 561.147 365.923 564.973L362.47 568.427L347 552C344.667 561.333 347 570.667 352.717 578.18L340 590.5C340 590.5 360.743 595.167 372.83 585.717C379.27 580.677 380.717 577.737 381.627 574.633L389 571.833ZM376.657 572.347C375.747 573.257 374.253 573.257 373.343 572.347C372.433 571.437 372.433 569.967 373.343 569.057C374.253 568.147 375.747 568.147 376.657 569.057C377.567 569.967 377.567 571.437 376.657 572.347Z" fill="#030DFF" fill-opacity="0.15"/>
</svg>
